# xmcd
#
# Track frame offsets:
#	150
#	22991
#	43379
#	65862
#	83866
#	105084
#	126188
#	145542
#	163727
#	181423
#	199230
#	216211
#	233891
#	251602
#	270135
#	286489
#
# Disc length: 4029 seconds
#
# Revision: 0
# Processed by: cddbd v1.5.2PL0 Copyright (c) Steve Scherf et al.
# Submitted via: EasyCDDAExtractor 15.3.0.1
#
DISCID=e50fbb10
DTITLE=Laura Pausini - 20 - The Greatest Hits - Grandes Exitos 2014
DYEAR=2014
DGENRE=Latin
TTITLE0=La Soledad (With Ennio Morricone 2013)
TTITLE1=Se Fue (With Marc Anthony 2013)
TTITLE2=Amores Extraños (New Version 2013)
TTITLE3=Inolvidable (New Version 2013)
TTITLE4=Le Cose Che Vivi, Tudo O Que Eu Vivo (With Ivete Sangalo 2013)
TTITLE5=It's Not Goodbye (New Version 2013)
TTITLE6=Entre Tu Y Mil Mares (With Melendi)
TTITLE7=E Ritorno Da Te (New Version 2013)
TTITLE8=Viveme (With Alejandro Sanz 2013)
TTITLE9=Como Si No Nos Hubieramos Amado
TTITLE10=You'll Never Find Another Love Like Mine (With Michael Buble) (Live 2
TTITLE10=005 At Wiltern Theater, Los Angeles, USA)
TTITLE11=En Cambio No
TTITLE12=Benvenuto
TTITLE13=Si No A Ti (With Thalia)
TTITLE14=Donde Quedo Solo Yo (With Alex Ubago)
TTITLE15=Limpio (With Kylie Minogue) (Spanglish Version)
EXTD=
EXTT0=
EXTT1=
EXTT2=
EXTT3=
EXTT4=
EXTT5=
EXTT6=
EXTT7=
EXTT8=
EXTT9=
EXTT10=
EXTT11=
EXTT12=
EXTT13=
EXTT14=
EXTT15=
PLAYORDER=
